Coordinates
version=1
nRows=13
nColumns=22
inDegrees=yes

Units are S.I. units (second, meters, Newtons, ...)
If the header above contains a line with 'inDegrees', this indicates whether rotational values are in degrees (yes) or radians (no).

endheader
time	pelvis_tilt	pelvis_list	pelvis_rotation	pelvis_tx	pelvis_ty	pelvis_tz	hip_flexion_r	hip_adduction_r	hip_rotation_r	knee_angle_r	ankle_angle_r	subtalar_angle_r	hip_flexion_l	hip_adduction_l	hip_rotation_l	knee_angle_l	ankle_angle_l	subtalar_angle_l	lumbar_extension	lumbar_bending	lumbar_rotation
      2.77000000	     -2.07138667	      2.94814133	    -16.91745040	     -0.19667787	      0.86703104	     -0.77459797	     15.19131201	     -3.77315111	     11.47098690	    -64.39070253	      1.93402622	     -8.71739570	     21.00866482	     -6.36352004	      2.63260106	    -25.27108889	      8.72947380	     13.58881503	     -4.21248954	     -2.11624704	      6.44357090
      2.78000000	     -2.02466567	      3.01474325	    -17.75669238	     -0.19019256	      0.86844752	     -0.77500160	     17.02917271	     -3.90303730	     10.42741719	    -66.51282949	      1.80393389	     -9.42392042	     20.24682650	     -6.26434583	      1.90680258	    -25.10931316	      9.13507455	     12.90988142	     -4.37986799	     -2.13717981	      6.11191234
      2.79000000	     -1.99338099	      2.99568560	    -18.58982266	     -0.18386894	      0.86994108	     -0.77514092	     18.73081794	     -3.88265697	      9.38179574	    -68.23600782	      2.06501926	     -9.88524526	     19.45941830	     -6.26085170	      1.19851010	    -24.88908399	      9.50748003	     12.29035597	     -4.55597515	     -2.06947112	      5.80305349
      2.80000000	     -1.98311355	      2.88182235	    -19.41162506	     -0.17769875	      0.87149372	     -0.77498604	     20.27677895	     -3.67168499	      8.33737388	    -69.54752528	      2.63165918	    -10.07989770	     18.65182478	     -6.37134522	      0.48797963	    -24.62701465	      9.85544421	     11.81046927	     -4.73865346	     -1.90740520	      5.51636339
      2.81000000	     -1.98929846	      2.66921561	    -20.14063123	     -0.17160712	      0.87311210	     -0.77470071	     21.63699529	     -3.32414399	      7.16177793	    -70.42695039	      3.28775977	    -10.09840840	     17.83893788	     -6.56290871	     -0.12218757	    -24.34412165	     10.19703602	     11.24436292	     -4.93815709	     -1.64297458	      5.19114517
      2.82000000	     -2.01787412	      2.37516325	    -20.83828608	     -0.16561718	      0.87476158	     -0.77415511	     22.83226080	     -2.80485198	      5.96040246	    -70.89332130	      3.90814076	     -9.84968054	     17.00483892	     -6.85505824	     -0.73658655	    -24.02163957	     10.51380112	     10.90904813	     -5.13924949	     -1.30098408	      4.87307910
      2.83000000	     -2.05751804	      2.03147491	    -21.45843952	     -0.15965595	      0.87641393	     -0.77347148	     23.85832849	     -2.20102824	      4.67787961	    -70.96483151	      4.42329599	     -9.31955163	     16.15555995	     -7.18795395	     -1.29222343	    -23.66276482	     10.81302661	     10.58395820	     -5.33993400	     -0.91315924	      4.51890004
      2.84000000	     -2.09797861	      1.69498306	    -22.02354895	     -0.15371210	      0.87801583	     -0.77267614	     24.74697547	     -1.58265310	      3.36902319	    -70.68529305	      4.85427687	     -8.34119987	     15.28766762	     -7.50255795	     -1.81284919	    -23.25342083	     11.08168494	     10.30062830	     -5.52768474	     -0.53992577	      4.16013485
      2.85000000	     -2.13773383	      1.32541797	    -22.54242751	     -0.14778094	      0.87958041	     -0.77173532	     25.48044291	     -0.91672651	      2.03038548	    -70.06267502	      5.14238077	     -7.28718467	     14.39220693	     -7.84930239	     -2.32515904	    -22.81345101	     11.34526184	     10.13318244	     -5.71914293	     -0.13974878	      3.78298146
      2.86000000	     -2.17344560	      0.97646675	    -23.02972475	     -0.14186552	      0.88104161	     -0.77070651	     26.10068317	     -0.28016133	      0.69787743	    -69.15047452	      5.37901894	     -6.06193362	     13.48803796	     -8.17124178	     -2.85536813	    -22.35090705	     11.59563438	     10.01691431	     -5.89853673	      0.23791771	      3.38929605
      2.87000000	     -2.20876070	      0.66705676	    -23.49914580	     -0.13597515	      0.88237090	     -0.76958512	     26.63349826	      0.29700465	     -0.61158480	    -67.98325697	      5.60359466	     -4.75478647	     12.57613778	     -8.44995317	     -3.39747700	    -21.84881755	     11.83067672	      9.94713571	     -6.05354188	      0.57265822	      2.99851771
      2.88000000	     -2.24642933	      0.40906267	    -23.96664609	     -0.13012082	      0.88353399	     -0.76841005	     27.10547896	      0.78701325	     -1.88423006	    -66.60141021	      5.87129167	     -3.42080884	     11.67332949	     -8.67526137	     -3.97897863	    -21.32708495	     12.05452761	      9.91440983	     -6.18001786	      0.86484061	      2.60954076
      2.89000000	     -2.28875246	      0.21611851	    -24.44370477	     -0.12430421	      0.88450640	     -0.76716216	     27.53378023	      1.17160418	     -3.10739111	    -65.03681605	      6.20798340	     -2.11548303	     10.79022700	     -8.83527784	     -4.60794097	    -20.79308800	     12.27057784	      9.91319782	     -6.26745935	      1.09865756	      2.22868700
